<?xml version="1.0" encoding="UTF-8" standalone="no"?> <svg id="Layer_1" data-name="Layer 1" xmlns="http://www.w3.org/2000/svg" viewBox="0 0 128 128"><defs><style>.cls-1{fill:#2d3e50;}.cls-2{fill:#1d75b8;}</style></defs><title>a</title><path class="cls-1" d="M96.1557,58.65554c-.55884-.0739-1.11768-.137-1.675-.20168a30.88087,30.88087,0,0,0-4.78325-11.50628q.52882-.66277,1.04995-1.33476c.94833-1.21775,1.88281-2.44935,2.77573-3.721l-7.07557-7.07558c-1.27163.89292-2.50324,1.82739-3.721,2.77574q-.672.51958-1.33475,1.04995a30.88858,30.88858,0,0,0-11.52014-4.78633q-.09467-.836-.20013-1.6719c-.1909-1.53027-.40027-3.06208-.66814-4.59235H58.99661c-.26634,1.53027-.47571,3.06208-.66815,4.59235q-.10623.836-.19859,1.6719a30.87033,30.87033,0,0,0-11.52168,4.78633q-.66276-.53113-1.33475-1.04995c-1.21775-.94834-2.44781-1.88281-3.71945-2.77574l-7.07712,7.07558c.89445,1.27163,1.82894,2.50324,2.77574,3.721q.5219.66969,1.04995,1.33322a30.89569,30.89569,0,0,0-4.78633,11.52167q-.836.09469-1.67036.20013c-1.53181.19091-3.06208.40028-4.59389.66815V69.3428c1.53181.26632,3.06208.47571,4.59389.66815q.836.10622,1.67036.1986a30.87959,30.87959,0,0,0,4.77863,11.5109c-.35254.44336-.70509.88674-1.04994,1.33628-.94526,1.22082-1.87666,2.454-2.768,3.72868L41.554,93.861c1.27471-.88984,2.50785-1.82123,3.72868-2.76649.44953-.34485.89291-.6974,1.33629-1.04994A30.88689,30.88689,0,0,0,58.116,94.8201c.06313.55732.12778,1.11614.20168,1.67346.194,1.5318.40643,3.06206.67893,4.59389H69.0034c.27249-1.53182.48648-3.06208.68046-4.59389.07389-.55732.137-1.11614.20168-1.67346A30.89035,30.89035,0,0,0,81.381,90.04456c.44338.35253.8883.70509,1.33783,1.04994,1.2193.94526,2.45243,1.87665,3.72869,2.76649l7.07557-7.07557c-.88983-1.27472-1.82123-2.50786-2.768-3.72868-.34485-.45107-.69739-.89446-1.0484-1.33782a30.88769,30.88769,0,0,0,4.774-11.49551c.5573-.06467,1.11614-.12777,1.675-.20168,1.53027-.194,3.06208-.40643,4.59234-.67892V59.336C99.21778,59.0635,97.686,58.84952,96.1557,58.65554ZM73.86979,83.77721a21.79863,21.79863,0,0,1-29.30761-9.56957,21.40169,21.40169,0,0,1-1.29626-3.12521A21.73835,21.73835,0,0,1,44.573,54.4496a21.93928,21.93928,0,0,1,9.53725-9.53725A21.47233,21.47233,0,0,1,57.257,43.60377a21.83254,21.83254,0,0,1,13.48763.00154,21.44748,21.44748,0,0,1,3.14521,1.307,21.93938,21.93938,0,0,1,9.53725,9.53725,21.73247,21.73247,0,0,1,.01078,19.758A21.94477,21.94477,0,0,1,73.86979,83.77721Z"/><path class="cls-2" d="M119.07915,37.40884A61.17772,61.17772,0,0,0,97.54129,13.352a60.22718,60.22718,0,0,0-50.85168-6.8494A59.75962,59.75962,0,0,0,9.40678,40.87027l4.59571,1.94118A54.21543,54.21543,0,0,1,34.28024,19.10379a53.23716,53.23716,0,0,1,58.90691.79853A52.85594,52.85594,0,0,1,111.481,41.79566l-5.7551,3.32268,17.23026,7.27141,1.97623-18.36027Z"/><path class="cls-2" d="M8.92085,90.59116A61.17772,61.17772,0,0,0,30.45871,114.648a60.22718,60.22718,0,0,0,50.85168,6.8494,59.75961,59.75961,0,0,0,37.28283-34.36771l-4.59571-1.94118a54.21543,54.21543,0,0,1-20.27775,23.70766,53.23716,53.23716,0,0,1-58.90691-.79853A52.85594,52.85594,0,0,1,16.519,86.20434l5.7551-3.32268L5.04388,75.61025,3.06764,93.97052Z"/></svg>